<svg width="24" height="24" viewBox="0 0 24 24" fill="none" xmlns="http://www.w3.org/2000/svg">
<g clip-path="url(#clip0_13_1280)">
<path d="M22.2003 8.95208C21.8963 8.77445 21.6592 8.50665 21.5242 8.18825C21.3891 7.86986 21.3632 7.51776 21.4503 7.18398C21.6088 6.58424 21.6033 5.95479 21.4345 5.35771C21.2658 4.76062 20.9394 4.21654 20.4878 3.77912C20.0362 3.3417 19.4748 3.02605 18.8591 2.8633C18.2433 2.70055 17.5945 2.69633 16.9766 2.85105C16.6331 2.93529 16.2707 2.91001 15.9432 2.77898C15.6156 2.64794 15.3403 2.41809 15.1578 2.12344C14.8328 1.59186 14.3708 1.15149 13.8171 0.845618C13.2635 0.539747 12.6374 0.378906 12.0003 0.378906C11.3632 0.378906 10.7371 0.539747 10.1835 0.845618C9.62989 1.15149 9.16786 1.59186 8.84282 2.12344C8.66061 2.41923 8.38467 2.64992 8.0562 2.78105C7.72773 2.91219 7.36436 2.93674 7.02032 2.85105C6.40251 2.69762 5.75415 2.70296 5.13911 2.86656C4.52408 3.03016 3.96358 3.34636 3.51282 3.78403C3.06206 4.2217 2.73659 4.76574 2.56848 5.36256C2.40036 5.95937 2.3954 6.58838 2.55407 7.18762C2.64152 7.52086 2.61576 7.87259 2.48063 8.19049C2.3455 8.50839 2.10822 8.7755 1.80407 8.95208C1.25613 9.26741 0.802214 9.71565 0.486932 10.2527C0.17165 10.7898 0.00585937 11.3973 0.00585938 12.0153C0.00585938 12.6334 0.17165 13.2408 0.486932 13.7779C0.802214 14.315 1.25613 14.7632 1.80407 15.0786C2.10853 15.2558 2.34594 15.5235 2.48106 15.8421C2.61617 16.1606 2.64178 16.5129 2.55407 16.8467C2.39592 17.446 2.40143 18.075 2.57006 18.6717C2.73869 19.2684 3.06462 19.8122 3.51576 20.2495C3.9669 20.6868 4.52767 21.0025 5.14285 21.1656C5.75803 21.3287 6.40639 21.3335 7.02407 21.1796C7.36757 21.0954 7.7299 21.1206 8.05745 21.2517C8.385 21.3827 8.66037 21.6126 8.84282 21.9072C9.16786 22.4388 9.62989 22.8792 10.1835 23.185C10.7371 23.4909 11.3632 23.6517 12.0003 23.6517C12.6374 23.6517 13.2635 23.4909 13.8171 23.185C14.3708 22.8792 14.8328 22.4388 15.1578 21.9072C15.3409 21.6123 15.617 21.3823 15.9452 21.2513C16.2733 21.1202 16.6363 21.0951 16.9803 21.1796C17.5981 21.333 18.2465 21.3277 18.8615 21.1641C19.4766 21.0005 20.0371 20.6843 20.4878 20.2466C20.9386 19.8089 21.2641 19.2649 21.4322 18.6681C21.6003 18.0713 21.6052 17.4423 21.4466 16.843C21.3597 16.5098 21.3858 16.1583 21.5209 15.8405C21.6559 15.5227 21.8929 15.2556 22.1966 15.0786C22.7445 14.7632 23.1984 14.315 23.5137 13.7779C23.829 13.2408 23.9948 12.6334 23.9948 12.0153C23.9948 11.3973 23.829 10.7898 23.5137 10.2527C23.1984 9.71565 22.7445 9.26741 22.1966 8.95208H22.2003ZM21.1653 13.3832C20.4866 13.7813 19.9581 14.3809 19.6582 15.0932C19.3583 15.8055 19.3029 16.5926 19.5003 17.3378C19.5707 17.6055 19.5679 17.8864 19.4923 18.1528C19.4166 18.4192 19.2707 18.6618 19.069 18.8568C18.8672 19.0518 18.6165 19.1925 18.3417 19.2648C18.0668 19.3372 17.7773 19.3389 17.5016 19.2696C16.7315 19.0822 15.9198 19.1402 15.1863 19.435C14.4529 19.7298 13.8368 20.2459 13.4291 20.9067C13.2848 21.1452 13.0788 21.3429 12.8314 21.4803C12.5841 21.6177 12.3041 21.6899 12.0191 21.6899C11.7341 21.6899 11.454 21.6177 11.2067 21.4803C10.9594 21.3429 10.7534 21.1452 10.6091 20.9067C10.2816 20.3747 9.81752 19.9342 9.26214 19.6281C8.70675 19.322 8.07905 19.1609 7.44032 19.1605C7.1341 19.1603 6.82912 19.1982 6.53282 19.2733C6.25685 19.3415 5.96731 19.3388 5.69274 19.2654C5.41817 19.192 5.16806 19.0505 4.96705 18.8548C4.76605 18.659 4.6211 18.4158 4.54649 18.1492C4.47187 17.8826 4.47018 17.6016 4.54157 17.3342C4.73539 16.5871 4.67591 15.7994 4.37195 15.0877C4.06798 14.376 3.53572 13.7783 2.85407 13.3832C2.60829 13.2433 2.4045 13.0434 2.2629 12.8034C2.12129 12.5635 2.04679 12.2918 2.04679 12.0153C2.04679 11.7388 2.12129 11.4671 2.2629 11.2272C2.4045 10.9873 2.60829 10.7874 2.85407 10.6474C3.53621 10.252 4.06856 9.65354 4.37193 8.94102C4.6753 8.2285 4.73349 7.44002 4.53782 6.69284C4.46835 6.42487 4.47189 6.14398 4.54811 5.87774C4.62433 5.6115 4.7706 5.36907 4.97256 5.17423C5.17453 4.9794 5.42524 4.83887 5.7001 4.76642C5.97495 4.69398 6.2645 4.69213 6.54032 4.76103C7.30981 4.94821 8.12097 4.89008 8.85376 4.59523C9.58654 4.30038 10.202 3.78449 10.6091 3.12391C10.7534 2.88547 10.9594 2.68776 11.2067 2.55038C11.454 2.413 11.7341 2.34073 12.0191 2.34073C12.3041 2.34073 12.5841 2.413 12.8314 2.55038C13.0788 2.68776 13.2848 2.88547 13.4291 3.12391C13.8366 3.78569 14.4535 4.30215 15.188 4.59646C15.9224 4.89077 16.7352 4.94722 17.5053 4.7574C17.7814 4.68949 18.0709 4.69241 18.3455 4.76585C18.6201 4.83929 18.8703 4.98074 19.0715 5.17631C19.2727 5.37188 19.418 5.61484 19.4932 5.88135C19.5684 6.14787 19.5708 6.42877 19.5003 6.69648C19.3049 7.44313 19.3633 8.23103 19.6666 8.94292C19.97 9.65481 20.5022 10.2526 21.1841 10.6474C21.4299 10.7874 21.6336 10.9873 21.7752 11.2272C21.9169 11.4671 21.9914 11.7388 21.9914 12.0153C21.9914 12.2918 21.9169 12.5635 21.7752 12.8034C21.6336 13.0434 21.4299 13.2433 21.1841 13.3832H21.1653Z" fill="#641B31"/>
<path d="M12 7.09265C10.9965 7.09265 10.0156 7.38134 9.1812 7.92221C8.34682 8.46308 7.69651 9.23183 7.31249 10.1313C6.92847 11.0307 6.82799 12.0204 7.02376 12.9752C7.21953 13.9301 7.70276 14.8071 8.41234 15.4955C9.12192 16.1839 10.026 16.6527 11.0102 16.8427C11.9944 17.0326 13.0146 16.9351 13.9417 16.5626C14.8688 16.19 15.6612 15.5591 16.2187 14.7496C16.7762 13.9402 17.0738 12.9885 17.0738 12.0149C17.0718 10.7101 16.5366 9.45918 15.5855 8.53648C14.6344 7.61379 13.3451 7.09458 12 7.09265ZM12 14.9691C11.3978 14.9691 10.8091 14.7958 10.3083 14.4712C9.80756 14.1466 9.41728 13.6852 9.18681 13.1454C8.95634 12.6056 8.89604 12.0117 9.01353 11.4386C9.13102 10.8656 9.42103 10.3392 9.84688 9.92608C10.2727 9.51294 10.8153 9.23159 11.406 9.1176C11.9966 9.00362 12.6089 9.06212 13.1653 9.28571C13.7217 9.5093 14.1973 9.88793 14.5318 10.3737C14.8664 10.8595 15.045 11.4307 15.045 12.0149C15.044 12.7981 14.7229 13.549 14.1521 14.1028C13.5812 14.6565 12.8073 14.9681 12 14.9691Z" fill="#641B31"/>
</g>
<defs>
<clipPath id="clip0_13_1280">
<rect width="24" height="23.2836" fill="white" transform="translate(0 0.373169)"/>
</clipPath>
</defs>
</svg>
