<svg width="17" height="17" viewBox="0 0 17 17" fill="none" xmlns="http://www.w3.org/2000/svg">
<path d="M8.49995 3.825C8.26524 3.825 8.07495 4.0153 8.07495 4.25V8.2377L5.77485 9.39565C5.63167 9.46782 5.54129 9.61443 5.54113 9.77479C5.54098 10.0095 5.73112 10.1998 5.96577 10.2C6.03213 10.2003 6.0976 10.1846 6.15664 10.1543L8.69087 8.87935C8.83431 8.80728 8.92484 8.66052 8.92495 8.5V4.25C8.92495 4.0153 8.7347 3.825 8.49995 3.825ZM8.5 0C3.8056 0 0 3.8056 0 8.5C0 13.1944 3.8056 17 8.5 17C13.1921 16.9945 16.9945 13.1921 17 8.5C17 3.8056 13.1944 0 8.5 0ZM8.5 16.15C4.27501 16.15 0.85 12.725 0.85 8.5C0.85 4.27501 4.27501 0.85 8.5 0.85C12.7231 0.854617 16.1454 4.27693 16.15 8.5C16.15 12.725 12.725 16.15 8.5 16.15Z" fill="#BD3E4A"/>
</svg>
