<svg width="22" height="21" viewBox="0 0 22 21" fill="none" xmlns="http://www.w3.org/2000/svg">
<path d="M15.3187 0.870728C13.4699 0.870728 11.7269 1.74346 10.5647 3.16161C9.40239 1.74346 7.65937 0.870728 5.81056 0.870728C2.53541 0.870728 0 3.48866 0 6.87042C0 11.0155 3.59188 14.3429 9.03257 19.4695L10.5647 20.888L12.0967 19.4695C17.5374 14.3428 21.1293 11.0154 21.1293 6.87042C21.1293 3.48866 18.5939 0.870728 15.3187 0.870728ZM11.2166 18.0343L11.0023 18.2362L10.5647 18.6414L10.127 18.2363L9.913 18.0346C7.35218 15.622 5.14057 13.5383 3.67853 11.6752C2.25855 9.86571 1.62533 8.38386 1.62533 6.87042C1.62533 5.67851 2.0531 4.58038 2.82985 3.77839C3.60402 2.97905 4.66257 2.53883 5.81056 2.53883C7.13795 2.53883 8.4502 3.17307 9.32077 4.23534L10.5647 5.75311L11.8085 4.23534C12.6791 3.17307 13.9913 2.53883 15.3187 2.53883C16.4668 2.53883 17.5253 2.97905 18.2995 3.77834C19.0762 4.58038 19.504 5.67846 19.504 6.87042C19.504 8.38386 18.8708 9.86566 17.4509 11.6751C15.9889 13.5382 13.7774 15.6217 11.2166 18.0343Z" fill="#641B31"/>
</svg>
