<svg width="21" height="24" viewBox="0 0 21 24" fill="none" xmlns="http://www.w3.org/2000/svg">
<path d="M8.04356 21.723C8.59879 22.4199 9.41414 22.8709 10.3092 22.9763C11.2042 23.0816 12.1051 22.8325 12.8125 22.2842C13.03 22.122 13.2258 21.9334 13.3951 21.723M1.31098 13.8666V13.6231C1.3467 12.9026 1.57762 12.2045 1.97992 11.6008C2.64955 10.8755 3.10794 9.98683 3.30702 9.02786C3.30702 8.28669 3.30702 7.53494 3.37175 6.79377C3.70622 3.22558 7.23436 0.758545 10.7193 0.758545H10.8056C14.2906 0.758545 17.8188 3.22558 18.164 6.79377C18.2288 7.53494 18.164 8.28669 18.218 9.02786C18.4197 9.98905 18.8777 10.8805 19.5451 11.6114C19.9504 12.2097 20.1817 12.9053 20.214 13.6231V13.856C20.2381 14.824 19.9047 15.7679 19.2753 16.5137C18.4437 17.3856 17.3151 17.9281 16.1032 18.0383C12.5497 18.4195 8.96446 18.4195 5.41095 18.0383C4.20048 17.9233 3.07353 17.3816 2.23886 16.5137C1.61921 15.7674 1.29031 14.8291 1.31098 13.8666Z" stroke="#641B31" stroke-width="1.5" stroke-linecap="round" stroke-linejoin="round"/>
</svg>
