<svg width="17" height="17" viewBox="0 0 17 17" fill="none" xmlns="http://www.w3.org/2000/svg">
<path d="M6.57491 13.2105C2.9495 13.2105 0 10.2474 0 6.60525C0 2.96312 2.9495 0 6.57491 0C10.2003 0 13.1498 2.96312 13.1498 6.60525C13.1498 10.2474 10.2003 13.2105 6.57491 13.2105ZM6.57491 1.32105C3.67472 1.32105 1.31498 3.69168 1.31498 6.60525C1.31498 9.51883 3.67472 11.8895 6.57491 11.8895C9.4751 11.8895 11.8348 9.51883 11.8348 6.60525C11.8348 3.69168 9.47576 1.32105 6.57491 1.32105Z" fill="#641B31"/>
<path d="M15.9715 16.706C15.8851 16.7061 15.7996 16.6891 15.7199 16.6558C15.6401 16.6226 15.5676 16.5739 15.5066 16.5125L10.4479 11.4304C10.3869 11.3691 10.3384 11.2963 10.3054 11.2161C10.2724 11.136 10.2554 11.0501 10.2554 10.9634C10.2554 10.8767 10.2724 10.7908 10.3054 10.7107C10.3384 10.6305 10.3869 10.5577 10.4479 10.4964C10.509 10.4351 10.5814 10.3864 10.6612 10.3533C10.7409 10.3201 10.8264 10.303 10.9128 10.303C10.9991 10.303 11.0846 10.3201 11.1643 10.3533C11.2441 10.3864 11.3166 10.4351 11.3776 10.4964L16.4363 15.5785C16.5286 15.6707 16.5915 15.7885 16.617 15.9167C16.6426 16.0449 16.6296 16.1778 16.5798 16.2986C16.53 16.4195 16.4456 16.5227 16.3373 16.5952C16.229 16.6677 16.1017 16.7063 15.9715 16.706Z" fill="#641B31"/>
</svg>
